#N canvas 887 504 182 185 10;
#X obj 41 92 osc~ 440;
#X obj 101 128 inlet;
#X obj 129 68 mtof;
#X obj 16 10 route freq note;
#X obj 17 157 ../_lib/to_glovebox \$0;
#X connect 0 0 4 0;
#X connect 1 0 4 1;
#X connect 2 0 0 0;
#X connect 3 0 0 0;
#X connect 3 1 2 0;
#X connect 4 0 3 0;
