#N canvas 72 146 450 300 10;
#X obj 18 263 ../_lib/to_glovebox \$0;
#X obj 144 241 inlet;
#X obj 19 13 route impulse bang start stop load;
#X obj 329 12 table \$0-waveloop;
#X obj 209 114 soundfiler;
#X obj 213 65 pack s \$0;
#X obj 216 41 symbol;
#X msg 213 91 read -resize \$1 \$2-waveloop;
#X obj 27 207 tabplay~ \$0-waveloop;
#X obj 37 46 t b;
#X obj 134 134 arraysize \$0-waveloop;
#X obj 143 156 / 44.1;
#X msg 59 169 0 1;
#X msg 53 101 stop;
#X obj 58 74 delay 1;
#X obj 186 188 metro 6986;
#X connect 0 0 2 0;
#X connect 1 0 0 1;
#X connect 2 0 9 0;
#X connect 2 1 9 0;
#X connect 2 2 9 0;
#X connect 2 3 13 0;
#X connect 2 4 6 0;
#X connect 5 0 7 0;
#X connect 6 0 5 0;
#X connect 7 0 4 0;
#X connect 8 0 0 0;
#X connect 9 0 14 0;
#X connect 9 0 10 0;
#X connect 10 0 11 0;
#X connect 11 0 15 1;
#X connect 12 0 8 0;
#X connect 13 0 12 0;
#X connect 13 0 15 0;
#X connect 14 0 15 0;
#X connect 15 0 8 0;
