#N canvas 896 327 450 300 10;
#X obj 179 56 tgl 15 0 empty empty empty 17 7 0 10 -262144 -1 -1 1
1;
#X msg 168 81 active \$1;
#X obj 22 265 dac~;
#X obj 43 207 catch~ master;
#X obj 49 235 *~ 0.3;
#X msg 45 70 start;
#X msg 19 96 stop;
#X msg 93 26 load loops/amenbreakoriginal.wav;
#X obj 104 134 looper;
#X msg 87 79 bang;
#X connect 0 0 1 0;
#X connect 1 0 8 0;
#X connect 3 0 4 0;
#X connect 4 0 2 0;
#X connect 4 0 2 1;
#X connect 5 0 8 0;
#X connect 6 0 8 0;
#X connect 7 0 8 0;
#X connect 9 0 8 0;
