#N canvas 0 22 450 300 10;
#X obj 18 263 ../_lib/to_glovebox \$0;
#X obj 144 241 inlet;
#X obj 22 48 ftom;
#X obj 171 133 max 0;
#X obj 177 161 min 50;
#X obj 179 101 * 50;
#X msg 123 46 1;
#X obj 19 13 route freq note impulse bang stop damping;
#X msg 156 50 0;
#X obj 101 180 pluck~;
#X obj 226 85 -;
#X obj 221 40 delay 1;
#X msg 225 64 1;
#X connect 0 0 7 0;
#X connect 1 0 0 1;
#X connect 2 0 9 1;
#X connect 3 0 4 0;
#X connect 4 0 9 2;
#X connect 5 0 3 0;
#X connect 6 0 9 0;
#X connect 7 0 2 0;
#X connect 7 1 9 1;
#X connect 7 2 9 0;
#X connect 7 3 6 0;
#X connect 7 4 8 0;
#X connect 7 5 10 1;
#X connect 7 5 11 0;
#X connect 8 0 9 0;
#X connect 9 0 0 0;
#X connect 10 0 5 0;
#X connect 11 0 12 0;
#X connect 12 0 10 0;
