#N canvas 895 217 450 300 10;
#X obj 114 217 catch~ master;
#X obj 114 245 *~ 0.3;
#X obj 114 275 dac~;
#X obj 203 20 tgl 15 0 empty empty empty 17 7 0 10 -262144 -1 -1 1
1;
#X msg 200 38 active \$1;
#X msg 40 54 note \$1;
#X obj 40 29 hsl 128 15 0 127 0 0 empty empty empty -2 -8 0 10 -262144
-1 -1 5700 1;
#X obj 276 22 bng 15 250 50 0 empty empty empty 17 7 0 10 -262144 -1
-1;
#X msg 276 48 bang;
#X obj 344 32 bng 15 250 50 0 empty empty empty 17 7 0 10 -262144 -1
-1;
#X msg 337 57 impulse 0.4;
#X obj 280 100 hsl 128 15 0 1 0 0 empty empty empty -2 -8 0 10 -262144
-1 -1 12700 1;
#X msg 276 124 damping \$1;
#X obj 114 117 guitar_string;
#X connect 0 0 1 0;
#X connect 1 0 2 0;
#X connect 1 0 2 1;
#X connect 3 0 4 0;
#X connect 4 0 13 0;
#X connect 5 0 13 0;
#X connect 6 0 5 0;
#X connect 7 0 8 0;
#X connect 8 0 13 0;
#X connect 9 0 10 0;
#X connect 10 0 13 0;
#X connect 11 0 12 0;
#X connect 12 0 13 0;
