#N canvas 460 296 643 516 10;
#X obj 378 475 outlet~;
#X obj 378 229 sig~;
#X floatatom 234 154 5 0 0 0 - - -;
#X obj 262 291 *~ 0.995;
#X obj 378 281 clip~ -0.5 0.5;
#X obj 313 217 * 0.001;
#X obj 313 243 + 0.95;
#X obj 562 150 inlet;
#X obj 378 255 vd~ \$0-buff;
#X obj 262 317 lop~ 5000;
#X obj 148 368 delwrite~ \$0-buff 256;
#X obj 378 177 mtof;
#X floatatom 325 291 5 0 0 0 - - -;
#X obj 370 50 block~ 32 1;
#X obj 204 177 del 2;
#X obj 376 138 s \$0-vel;
#X obj 401 307 r \$0-vel;
#X obj 378 356 *~ 1;
#X msg 171 203 1;
#X msg 204 203 0;
#X obj 148 235 *~ 0;
#X text 559 130 feedback;
#X obj 378 203 expr 1000/$f1;
#X text 24 168 short burst of noise;
#X obj 378 449 *~;
#X obj 418 421 line~;
#X msg 469 394 1;
#X obj 469 368 t b;
#X obj 418 341 select 0;
#X text 466 320 unclick on note-off;
#X msg 418 367 0 500;
#X obj 122 191 noise~;
#X text 6 487 http://lists.puredata.info/pipermail/pd-list/2001-09/003085.html
;
#X obj 204 76 t b;
#X obj 285 83 inlet;
#X text 8 469 modified version of pluck~ by Frank Barknecht;
#X obj 145 48 inlet;
#X connect 1 0 8 0;
#X connect 2 0 14 1;
#X connect 3 0 9 0;
#X connect 4 0 17 0;
#X connect 5 0 6 0;
#X connect 6 0 3 1;
#X connect 7 0 5 0;
#X connect 8 0 4 0;
#X connect 8 0 3 0;
#X connect 9 0 10 0;
#X connect 11 0 22 0;
#X connect 12 0 9 1;
#X connect 14 0 19 0;
#X connect 16 0 17 1;
#X connect 16 0 28 0;
#X connect 17 0 24 0;
#X connect 18 0 20 1;
#X connect 19 0 20 1;
#X connect 20 0 10 0;
#X connect 22 0 1 0;
#X connect 24 0 0 0;
#X connect 25 0 24 1;
#X connect 26 0 25 0;
#X connect 27 0 26 0;
#X connect 28 0 30 0;
#X connect 28 1 27 0;
#X connect 30 0 25 0;
#X connect 31 0 20 0;
#X connect 33 0 14 0;
#X connect 33 0 18 0;
#X connect 34 0 11 0;
#X connect 36 0 33 0;
#X connect 36 0 15 0;
