#N canvas 876 354 475 379 10;
#X obj 99 318 inlet;
#X obj 65 34 t b;
#X obj 145 122 soundfiler;
#X obj 347 329 table \$0-wave;
#X obj 149 73 pack s \$0;
#X obj 16 10 route impulse bang load;
#X msg 149 99 read -resize \$1 \$2-wave;
#X obj 152 49 symbol;
#X obj 65 187 tabplay~ \$0-wave;
#X obj 34 289 *~;
#X msg 66 88 1;
#X obj 40 114 delay 1;
#X msg 41 148 0;
#X obj 122 225 env~ 16384;
#X obj 121 262 nbx 5 14 -1e+37 1e+37 0 0 empty empty empty 0 -8 0 10
-262144 -1 -1 0 256;
#X obj 63 257 float;
#X obj 15 347 ../_lib/to_glovebox \$0;
#X connect 0 0 16 1;
#X connect 1 0 10 0;
#X connect 4 0 6 0;
#X connect 5 0 11 0;
#X connect 5 0 15 1;
#X connect 5 1 1 0;
#X connect 5 2 7 0;
#X connect 6 0 2 0;
#X connect 7 0 4 0;
#X connect 8 0 13 0;
#X connect 8 0 9 0;
#X connect 9 0 16 0;
#X connect 10 0 11 0;
#X connect 10 0 15 1;
#X connect 11 0 12 0;
#X connect 11 0 15 0;
#X connect 12 0 8 0;
#X connect 13 0 14 0;
#X connect 15 0 9 1;
#X connect 16 0 5 0;
