#N canvas 611 146 450 300 10;
#X obj 83 226 catch~ master;
#X obj 87 254 *~ 0.3;
#X obj 83 285 dac~;
#X msg 201 32 active \$1;
#X obj 158 32 tgl 15 0 empty empty empty 17 7 0 10 -262144 -1 -1 1
1;
#X obj 12 188 ../looper/looper;
#X msg 20 57 load loops/amenbreakoriginal.wav;
#X msg 48 97 start;
#X msg 96 95 stop;
#X obj 239 160 bandpass_filter;
#X msg 244 113 freq \$1;
#X obj 235 81 hsl 128 15 10 5000 0 0 empty empty empty -2 -8 0 10 -262144
-1 -1 6700 1;
#X msg 327 138 q \$1;
#X obj 313 109 hsl 128 15 0 10 0 0 empty empty empty -2 -8 0 10 -262144
-1 -1 0 1;
#X obj 330 226 r test;
#X symbolatom 324 250 20 0 0 0 - - -;
#X msg 194 134 whothrow test;
#X msg 47 160 redirect \$1;
#X connect 0 0 1 0;
#X connect 1 0 2 0;
#X connect 1 0 2 1;
#X connect 3 0 5 0;
#X connect 3 0 9 0;
#X connect 4 0 3 0;
#X connect 6 0 5 0;
#X connect 7 0 5 0;
#X connect 8 0 5 0;
#X connect 10 0 9 0;
#X connect 11 0 10 0;
#X connect 12 0 9 0;
#X connect 13 0 12 0;
#X connect 14 0 15 0;
#X connect 15 0 17 0;
#X connect 16 0 9 0;
#X connect 17 0 5 0;
