#N canvas 192 47 645 476 10;
#X obj 153 385 inlet;
#X obj 21 22 catch~ gloveboxinput\$0;
#X obj 19 414 ../_lib/to_glovebox \$0;
#X obj 123 315 freeverb~;
#X obj 65 75 route roomsize damping wet;
#X obj 368 75 delay 1;
#X obj 356 124 -;
#X msg 366 99 1;
#X msg 305 96 wet \$1;
#X msg 344 156 dry \$1;
#X obj 445 175 loadbang;
#X msg 420 207 width 0;
#X msg 20 129 roomsize \$1;
#X msg 117 129 damping \$1;
#X connect 0 0 2 1;
#X connect 1 0 3 0;
#X connect 2 0 4 0;
#X connect 3 0 2 0;
#X connect 4 0 12 0;
#X connect 4 1 13 0;
#X connect 4 2 8 0;
#X connect 4 2 5 0;
#X connect 4 2 6 1;
#X connect 5 0 7 0;
#X connect 6 0 9 0;
#X connect 7 0 6 0;
#X connect 8 0 3 0;
#X connect 9 0 3 0;
#X connect 10 0 11 0;
#X connect 11 0 3 0;
#X connect 12 0 3 0;
#X connect 13 0 3 0;
