#N canvas 679 206 609 409 10;
#X obj 26 156 noise~;
#X obj 98 355 inlet;
#X obj 61 33 t b;
#X obj 46 331 *~;
#X obj 76 207 tgl 15 0 empty empty empty 17 7 0 10 -262144 -1 -1 0
1;
#X obj 78 226 sel 0;
#X msg 78 58 1;
#X obj 85 149 float;
#X obj 121 90 delay 1;
#X obj 14 7 route impulse bang attack sustain release;
#X msg 66 250 1;
#X msg 100 253 -1;
#X obj 47 283 bp~ 50000 0;
#X obj 265 230 tgl 15 0 empty empty empty 17 7 0 10 -262144 -1 -1 0
1;
#X obj 264 253 sel 0;
#X obj 199 306 hip~ 4000;
#X obj 199 345 lop~ 7000;
#X msg 289 347 5000;
#X msg 373 345 14000;
#X msg 371 308 10000;
#X msg 289 306 4000;
#X obj 136 126 ../_lib/atmostevery 75;
#X obj 21 375 ../_lib/to_glovebox \$0;
#X obj 338 209 ../_lib/impulse_envelope 50 50 50;
#X connect 0 0 12 0;
#X connect 0 0 15 0;
#X connect 1 0 22 1;
#X connect 2 0 6 0;
#X connect 3 0 22 0;
#X connect 4 0 5 0;
#X connect 5 0 10 0;
#X connect 5 1 11 0;
#X connect 6 0 7 1;
#X connect 6 0 8 0;
#X connect 7 0 23 0;
#X connect 8 0 21 0;
#X connect 9 0 8 0;
#X connect 9 0 7 1;
#X connect 9 1 2 0;
#X connect 9 2 23 1;
#X connect 9 3 23 2;
#X connect 9 4 23 3;
#X connect 10 0 12 2;
#X connect 11 0 12 2;
#X connect 13 0 14 0;
#X connect 14 0 17 0;
#X connect 14 0 20 0;
#X connect 14 1 18 0;
#X connect 14 1 19 0;
#X connect 15 0 16 0;
#X connect 16 0 3 0;
#X connect 17 0 16 1;
#X connect 18 0 16 1;
#X connect 19 0 15 1;
#X connect 20 0 15 1;
#X connect 21 0 7 0;
#X connect 21 0 4 0;
#X connect 21 0 13 0;
#X connect 22 0 9 0;
#X connect 23 0 3 1;
