#N canvas 551 170 554 326 10;
#X obj 33 263 dac~;
#X obj 54 205 catch~ master;
#X obj 60 233 *~ 0.3;
#X obj 135 58 bng 15 250 50 0 empty empty empty 17 7 0 10 -262144 -1
-1;
#X msg 141 83 bang;
#X msg 225 92 active \$1;
#X obj 233 65 tgl 15 0 empty empty empty 17 7 0 10 -262144 -1 -1 1
1;
#X obj 186 9 hsl 128 15 0 500 0 0 empty empty empty -2 -8 0 10 -262144
-1 -1 0 1;
#X msg 181 33 attack \$1;
#X obj 317 40 hsl 128 15 0 500 0 0 empty empty empty -2 -8 0 10 -262144
-1 -1 0 1;
#X msg 312 65 release \$1;
#X obj 344 121 hsl 128 15 0 500 0 0 empty empty empty -2 -8 0 10 -262144
-1 -1 0 1;
#X msg 342 149 sustain \$1;
#X obj 171 132 maracas;
#X msg 44 86 impulse 0.5;
#X connect 1 0 2 0;
#X connect 2 0 0 0;
#X connect 2 0 0 1;
#X connect 3 0 4 0;
#X connect 4 0 13 0;
#X connect 5 0 13 0;
#X connect 6 0 5 0;
#X connect 7 0 8 0;
#X connect 8 0 13 0;
#X connect 9 0 10 0;
#X connect 10 0 13 0;
#X connect 11 0 12 0;
#X connect 12 0 13 0;
#X connect 14 0 13 0;
