#N canvas 955 113 450 300 10;
#X obj 284 56 loadbang;
#X msg 189 190 0;
#X msg 62 118 1;
#X obj 50 173 int;
#X obj 37 80 delay 1;
#X obj 51 204 sel 0;
#X obj 28 6 inlet;
#X obj 33 40 t b;
#X obj 50 267 outlet;
#X obj 55 234 t b;
#X obj 172 7 inlet;
#X obj 238 132 metro \$1;
#X connect 0 0 11 0;
#X connect 1 0 3 1;
#X connect 2 0 3 1;
#X connect 3 0 5 0;
#X connect 4 0 2 0;
#X connect 5 0 9 0;
#X connect 6 0 7 0;
#X connect 7 0 4 0;
#X connect 7 0 3 0;
#X connect 9 0 8 0;
#X connect 10 0 11 1;
#X connect 11 0 1 0;
#X coords 0 0 1 1 40 30 0;
