#N canvas 316 275 449 349 10;
#X obj 105 311 outlet;
#X obj 10 35 inlet;
#X obj 31 106 t b;
#X msg 195 213 0 \$1;
#X obj 51 184 pack f 0;
#X msg 52 207 \$1 \$2;
#X obj 121 22 inlet;
#X obj 195 25 inlet;
#X obj 269 27 inlet;
#X text 107 3 ATTACK (ms);
#X text 8 15 IMPULSE (float);
#X text 186 8 SUSTAIN (ms);
#X text 261 10 RELEASE (ms);
#X obj 119 152 int \$1;
#X obj 190 146 delay \$2;
#X obj 278 138 int \$3;
#X obj 108 277 line 0 2;
#X connect 1 0 2 0;
#X connect 1 0 4 0;
#X connect 2 0 13 0;
#X connect 2 0 14 0;
#X connect 3 0 16 0;
#X connect 4 0 5 0;
#X connect 5 0 16 0;
#X connect 6 0 13 1;
#X connect 7 0 14 1;
#X connect 8 0 15 1;
#X connect 13 0 4 1;
#X connect 14 0 15 0;
#X connect 15 0 3 0;
#X connect 16 0 0 0;
