#N canvas 785 112 450 300 10;
#X obj 19 22 inlet~;
#X obj 43 269 outlet~;
#X obj 127 54 sel 1;
#X msg 244 93 0 100;
#X msg 180 95 1 100;
#X obj 135 24 inlet;
#X obj 120 139 line 0 2;
#X obj 46 171 *~ 0;
#X connect 0 0 7 0;
#X connect 2 0 4 0;
#X connect 2 1 3 0;
#X connect 3 0 6 0;
#X connect 4 0 6 0;
#X connect 5 0 2 0;
#X connect 6 0 7 1;
#X connect 7 0 1 0;
