#N canvas 669 217 261 305 10;
#X obj 21 201 catch~ master;
#X obj 25 260 dac~;
#X obj 21 230 *~ 0.3;
#X obj 24 25 adc~ 1 2 3 4 5 6 7 8;
#X obj 24 52 send~ in1;
#X obj 33 74 send~ in2;
#X obj 46 93 send~ in3;
#X obj 58 113 send~ in4;
#X obj 130 120 send~ in8;
#X obj 126 98 send~ in7;
#X obj 112 77 send~ in6;
#X obj 95 52 send~ in5;
#X connect 0 0 2 0;
#X connect 2 0 1 0;
#X connect 2 0 1 1;
#X connect 3 0 4 0;
#X connect 3 1 5 0;
#X connect 3 2 6 0;
#X connect 3 3 7 0;
#X connect 3 4 11 0;
#X connect 3 5 10 0;
#X connect 3 6 9 0;
#X connect 3 7 8 0;
