#N canvas 387 47 645 476 10;
#X obj 153 385 inlet;
#X obj 21 22 catch~ gloveboxinput\$0;
#X obj 19 414 ../_lib/to_glovebox \$0;
#X obj 56 321 +~;
#X obj 219 298 float;
#X obj 385 174 loadbang;
#X obj 47 264 *~ 1;
#X obj 116 322 *~ 0;
#X obj 111 219 float;
#X msg 353 197 100;
#X obj 93 173 delwrite~ \$0-delayline1 20000;
#X obj 111 243 delread~ \$0-delayline1;
#X obj 96 145 +~;
#X obj 197 96 float;
#X obj 119 112 *~ 0;
#X obj 81 114 *~ 1;
#X msg 417 211 0.5;
#X msg 380 235 0;
#X obj 192 160 -;
#X msg 180 138 1;
#X obj 168 121 delay 1;
#X obj 351 341 -;
#X msg 339 319 1;
#X obj 332 301 delay 1;
#X obj 227 33 route delay wet feedback;
#X connect 0 0 2 1;
#X connect 1 0 15 0;
#X connect 1 0 6 0;
#X connect 2 0 24 0;
#X connect 3 0 14 0;
#X connect 3 0 2 0;
#X connect 4 0 7 1;
#X connect 4 0 23 0;
#X connect 4 0 21 1;
#X connect 5 0 16 0;
#X connect 5 0 9 0;
#X connect 5 0 17 0;
#X connect 6 0 3 0;
#X connect 7 0 3 1;
#X connect 8 0 11 0;
#X connect 9 0 8 0;
#X connect 11 0 7 0;
#X connect 12 0 10 0;
#X connect 13 0 14 1;
#X connect 13 0 18 1;
#X connect 13 0 20 0;
#X connect 14 0 12 1;
#X connect 15 0 12 0;
#X connect 16 0 4 0;
#X connect 17 0 13 0;
#X connect 18 0 15 1;
#X connect 19 0 18 0;
#X connect 20 0 19 0;
#X connect 21 0 6 1;
#X connect 22 0 21 0;
#X connect 23 0 22 0;
#X connect 24 0 8 0;
#X connect 24 1 4 0;
#X connect 24 2 13 0;
